<svg className="logo-svg" viewBox="0 0 800 800">
 <title>Logo</title>
 <g id="Logo" fill="none" fill-rule="evenodd">
  <path className="logo-border" d="m10 10h780v780h-780z" style="fill-opacity:0;;stroke:#718878" />
  <rect id="Rectangle" x="20" y="20" width="760" height="760" fill="#FEE5E0" className="logo-bg"/>
  <g className="letter-j" style="fill:#718878" aria-label="J">
   <path d="m107.64 381.76q-1.7773-0.50781-3.3008-1.7773-1.5234-1.0156-2.0312-2.5391-0.76172-1.5234-0.25391-3.0469 0.25391-1.5234 2.5391-2.5391 11.172-3.8086 21.328-8.125 10.156-4.3164 18.789-10.41 8.8867-5.8398 15.996-14.219 7.3633-8.3789 12.695-20.059l92.422-197.29h-3.3008q-0.50781 0-5.5859 2.2852-5.0781 2.2852-11.934 5.332-6.6016 3.0469-13.711 6.3477-7.1094 3.3008-11.426 5.5859-6.0938 3.0469-14.219 8.6328-7.8711 5.332-16.504 12.441-8.3789 7.1094-16.504 15.488-8.125 8.125-14.727 16.758-6.3477 8.3789-10.41 16.758-3.8086 8.3789-3.8086 15.488 0 2.793 1.0156 4.8242 1.2695 2.0312 2.793 4.0625 1.5234 1.7773 2.5391 4.0625 1.2695 2.0312 1.2695 4.5703-5.332 0-9.1406-1.7773-3.8086-2.0312-6.3477-5.0781-2.2852-3.3008-3.5547-7.3633-1.0156-4.0625-1.0156-8.3789 0-6.6016 2.2852-12.441 2.2852-6.0938 5.8398-11.426 3.8086-5.5859 8.3789-10.41 4.5703-5.0781 9.3945-9.9023 4.0625-4.0625 10.918-10.41 6.8555-6.6016 13.711-12.949 6.8555-6.3476 12.188-10.918 5.332-4.8242 6.0938-5.332l78.965-42.656q5.5859-3.3008 9.6484-9.3945 4.3164-6.0938 8.3789-11.934 4.3164-6.0938 9.6484-10.41 5.332-4.5703 13.457-4.5703 2.2852 0 4.0625 1.0156 1.7773 0.76172 4.0625 2.2852 0.25391 1.0156 0.25391 4.3164 0.2539 3.0469 0.2539 4.0625 0 3.3008 0 5.332 0 1.7773-0.76172 3.3008-0.50781 1.2695-2.0312 2.5391-1.2695 1.2695-4.3164 3.5547-2.2852 1.7773-8.125 6.0938-5.5859 4.3164-12.188 10.156-6.6016 5.5859-12.695 11.934-5.8398 6.0938-8.125 11.426l-57.637 115.02q-0.25391 1.2695-1.5234 5.0781-1.0156 3.5547-1.5234 4.8242-2.0312 4.0625-5.332 10.918-3.0469 6.6016-6.8555 14.473-3.5547 7.6172-7.6172 15.996-3.8086 8.125-7.3633 15.234-3.3008 7.1094-5.8398 12.188-2.5391 5.332-3.5547 6.8555-4.3164 8.3789-12.441 18.789-7.8711 10.41-18.027 19.297t-21.836 14.219q-11.68 5.332-23.359 3.8086z"/>
  </g>
  <g className="letter-r" style="fill:#718878" aria-label="R">
   <path stroke-dasharray="10" d="m233.8 754.05q-13.184 0-21.094-6.1524-7.9102-6.1523-12.305-16.406-4.1016-9.9609-5.5664-22.852-1.4648-12.891-2.0508-26.367-0.29297-13.477-0.58594-26.074 0-12.891-1.7578-22.559t-5.8594-15.234q-3.8086-5.8594-12.012-4.9805-2.0508 3.8086-6.1524 11.426-3.8086 7.6172-9.082 17.285-5.2734 9.668-11.133 20.508-5.5664 10.84-10.84 20.508-5.2734 9.668-9.668 17.578-4.1016 7.6172-6.1524 11.426-2.3438 4.1016-3.2226 6.4453-0.87891 2.0508-2.0508 3.5156-0.87891 1.1719-2.6367 1.4648-1.4648 0.29297-4.6875 0.29297-5.8594 0-8.2031-1.7578-2.3438-2.0508-2.3438-7.9102 4.9805-18.75 13.184-37.207 8.4961-18.75 18.75-36.914 10.254-18.457 21.68-36.328 11.426-18.164 22.559-35.742 7.0312-10.547 16.406-24.316 9.375-14.062 20.801-26.367 11.719-12.598 25.195-21.094 13.77-8.4961 29.297-8.4961 5.5664-0.29297 10.254 1.7578 4.9805 1.7578 8.2031 5.5664 3.2226 3.8086 4.6875 8.7891 1.4648 4.9805 0.29296 10.84 0 14.355-6.1523 27.832-5.8594 13.184-14.941 24.609-9.082 11.426-19.629 20.801-10.254 9.375-19.336 16.113t-15.234 10.84q-5.8594 3.8086-5.8594 4.1016 0 3.5156 0 13.477 0.29297 9.668 0.87891 22.266 0.8789 12.598 2.3438 26.66 1.4648 13.77 3.8086 26.074 2.6367 12.012 6.4453 20.508 4.1016 8.4961 9.668 10.547 0.87891 0.29297 4.1016 0.87891 3.2227 0.58594 7.0312 1.1719 4.1016 0.87891 7.3242 1.1719 3.5156 0.58594 4.3945 0.87891 0.58594 0.29296 2.0508 1.7578 1.4648 1.4648 1.7578 2.0508-6.7383 5.2734-11.133 6.4453-4.3945 1.1719-11.426 1.1719zm-50.098-166.41q0 4.3945 1.4648 6.7383 1.4648 2.0508 4.1016 2.9297 2.6367 0.8789 5.8594 1.1719 3.5156 0 7.3242 0 11.719 0 23.438-8.2031 11.719-8.4961 21.094-20.508 9.668-12.305 15.527-26.074 5.8594-13.77 5.8594-24.316 0-2.9297 0-5.8594 0-2.9297-0.58594-5.2734-0.58594-2.6367-2.3438-4.1016-1.7578-1.4648-5.5664-1.4648-6.7383 0-14.941 4.6875-8.2031 4.3945-16.699 11.719-8.4961 7.3242-16.699 16.699-7.9102 9.082-14.062 18.75-6.1523 9.375-9.9609 18.164-3.8086 8.7891-3.8086 14.941z"/>
  </g>
  <g className="logo-plus" style="fill:#cd6647" aria-label="+">
   <path d="m392.77 422.23q0-5.748 1.2774-11.07 1.2773-5.5352 1.2773-11.07h-30.018q-3.1934 0-4.6836-1.7031-1.4902-1.916-1.4902-4.2578 0-0.63867 0.21289-1.4902t0.42578-0.85156l41.514-8.3027q1.2773-0.21289 2.1289-1.916 1.0644-1.7031 1.7031-3.6192 0.85156-2.1289 1.0644-3.832 0.42579-1.7031 0.42579-1.7031 0.21289-0.85156 0.63867-3.1934 0.63867-2.5547 1.0644-5.1094 0.42578-2.5547 0.85156-4.8965t0.42578-3.4062h0.63868q0.21289 0 0.21289 0 0.21289-0.21289 0.42578-0.21289 3.6191 0 6.5996 3.1934 3.1934 2.9805 3.1934 6.5996 0 1.4902-0.85157 3.6191-0.63867 1.916-1.7031 4.0449-0.85156 2.1289-1.916 4.2578-0.85156 1.916-1.2773 3.1934 1.0644 0 3.6191 0.21289t3.4062 0.21289q8.9414 0 17.457-1.4902 8.5156-1.7031 17.457-1.7031 1.916 0 3.6191 1.0645 1.916 1.0644 1.916 3.4062 0 1.2773-2.1289 2.3418-1.916 1.0645-4.4707 2.1289-2.5547 0.85156-4.8965 1.4902-2.1289 0.63868-2.7676 0.63868-2.1289 0.42578-7.2383 1.2773-5.1094 0.85156-10.857 1.7031-5.5352 0.85156-10.645 1.7031-5.1094 0.63867-7.0254 0.85156l-8.3027 33.211q-0.63867 2.3418-2.3418 2.7676-1.4902 0.21289-3.1934 0.21289-4.2578 0-5.1094-2.3418-0.63868-2.3418-0.63868-5.9609z"/>
  </g>
  <g className="letter-b" style="fill:#718878" aria-label="B">
   <path d="m588.26 306.29q-5.2734-1.1719-11.719-1.1719-6.4453-0.29297-13.184-0.8789-6.7383-0.58594-13.184-1.7578-6.1523-1.4648-10.84-4.3945-4.3945-3.2226-6.7383-8.4961t-1.1719-13.77q-0.29297-0.87891-1.4648-4.3945-1.1719-3.5156-2.6367-7.3242-1.1719-3.8086-2.3438-7.0312-1.1719-3.2227-1.1719-4.1016-0.29297-2.0508 0.87891-4.1016 1.1719-2.0508 2.9297-3.5156 1.7578-1.4648 3.8086-2.3438 2.0508-1.1719 3.8086-1.4648 0.29297 0.87891 0.87891 4.1016 0.87891 2.9297 2.0508 6.4453 1.4648 3.2227 3.2227 6.1523 1.7578 2.6367 3.5156 2.6367 1.1719 0 2.3438-1.1719 1.1719-1.1719 3.2227-5.2734 2.3438-4.1016 6.1523-11.719 3.8086-7.6172 10.254-20.215 6.4453-12.598 16.113-31.348 9.9609-18.75 24.316-44.824 2.6367-4.3945 9.375-11.133 7.0312-7.0312 16.113-14.355 9.375-7.6172 19.922-15.234 10.84-7.6172 21.094-13.77 10.547-6.1523 19.629-9.9609t14.941-3.8086q2.3438 0 5.2734 0.29297 3.2227 0 4.1016 3.5156 0 0.58594 0 2.6367 0 1.7578 0 4.1016 0.29296 2.0508 0.29296 4.1016 0 1.7578 0 2.3438 0 10.84-3.5156 19.629-3.5156 8.4961-9.375 15.82-5.8594 7.0312-13.77 13.77-7.6172 6.4453-15.82 13.477 0 0.29297-0.29297 0.87891 0 0.58594 0 1.1719 0 0.29297 3.5156 4.6875 3.8086 4.1016 7.9102 10.84 4.3945 6.4453 7.9102 14.941 3.8086 8.2031 3.8086 16.992 0 18.457-10.84 36.328-10.547 17.578-26.953 31.641-16.113 14.062-35.449 22.559-19.336 8.4961-36.914 8.4961zm-26.953-26.953q0 4.1016 3.2227 6.1524 3.2227 1.7578 7.3242 2.3438 4.1016 0.29297 8.2031 0 4.3945-0.29297 6.1524-0.29297 18.457 0 33.398-5.2734 14.941-5.5664 26.367-15.527 11.426-10.254 19.629-24.316 8.4961-14.062 14.062-31.348 0-0.58593 0-2.6367 0.29297-2.3438 0.29297-2.9297 0-11.426-3.5156-17.578-3.2226-6.4453-9.375-9.375-5.8594-3.2226-14.355-4.1016-8.4961-0.87891-18.75-1.4648-1.4648-0.29297-4.3945-2.9297-2.6367-2.9297-2.9297-4.3945-0.58593-1.4648 0.87891-4.3945 1.4648-2.9297 2.6367-3.5156 11.719-0.29297 24.023-4.9805 12.305-4.9805 22.266-13.184 10.254-8.2031 16.699-19.336t6.4453-24.023q-10.84 0-23.145 7.6172-12.012 7.3242-23.438 18.164-11.133 10.547-20.215 22.559t-14.062 21.094q-2.0508 4.1016-6.7383 12.598-4.3945 8.4961-10.254 19.336-5.5664 10.84-11.719 22.852-6.1523 12.012-11.719 22.852-5.5664 10.84-9.9609 19.629-4.3945 8.7891-6.4453 12.891-0.29297 0.58594-0.58594 1.7578 0 1.1719 0 1.7578z"/>
  </g>
  <g className="letter-c" style="fill:#718878" aria-label="C">
   <path d="m523.81 690.48q2.0508-16.992 7.3242-32.227 5.2734-15.527 12.891-29.883 7.6172-14.648 16.992-28.711t19.922-28.418q6.1523-7.9102 13.477-16.113 7.3242-8.2031 15.82-14.941 8.4961-6.7383 18.164-10.84 9.9609-4.3945 20.801-4.3945 5.8594 0 9.082 0.87891 3.2227 0.58594 4.6875 2.9297 1.7578 2.0508 2.0508 6.1523t0 10.547q0 7.3242-2.6367 14.941-2.6367 7.6172-7.3242 14.355t-11.133 12.012q-6.4453 4.9805-13.77 7.3242v-4.1016q0-6.1524 2.6367-11.719 2.9297-5.5664 6.4453-11.133 3.5156-5.8594 6.1523-12.012 2.9297-6.1524 2.9297-13.184-3.2226 0-5.5664-0.29297-2.3438-0.58593-4.3945-0.58593-1.7578-0.29297-3.8086 0.58593-1.7578 0.58594-4.3945 2.9297-14.355 11.719-29.59 27.539-14.941 15.527-27.246 33.691t-20.215 38.086q-7.6172 19.629-7.6172 39.551 0 0.8789 0 2.9297 0.29297 2.0508 0.29297 4.1016 0.29297 2.0508 0.58594 3.8086t0.29297 2.0508q3.2226 3.2227 7.6172 3.8086 4.6875 0.58593 7.0312 0.58593 12.598 0 23.438-4.3945 11.133-4.3945 21.68-9.375 10.547-5.2734 21.094-9.668 10.84-4.3945 22.852-4.3945 0 4.6875-5.5664 10.547-5.2734 5.5664-14.062 11.133-8.4961 5.5664-19.043 10.84-10.547 4.9805-20.801 9.082-9.9609 4.1016-18.457 6.4453-8.2031 2.3438-12.598 2.3438-6.4453 0-12.891-2.3438-6.4453-2.6367-11.719-7.0312-4.9805-4.3945-8.2031-10.254-3.2227-6.1523-3.2227-13.184z"/>
  </g>
 </g>
</svg>
